<svg viewBox="0 0 64 64" fill="none" xmlns="http://www.w3.org/2000/svg">
    <g style="mix-blend-mode:soft-light">
        <path fill-rule="evenodd" clip-rule="evenodd" d="M31.5 0.5H0.5V31.5H31.5V0.5ZM31.5 0H0.5H0V0.5V31.5V32.5V63.5V64H0.5H31.5H32.5H63.5H64V63.5V32.5V31.5V0.5V0H63.5H32.5H31.5ZM32.5 0.5V31.5H63.5V0.5H32.5ZM63.5 32.5H32.5V63.5H63.5V32.5ZM31.5 63.5V32.5H0.5V63.5H31.5ZM27.9365 15.746C27.9365 22.4786 22.4786 27.9365 15.746 27.9365C9.01342 27.9365 3.55556 22.4786 3.55556 15.746C3.55556 9.01342 9.01342 3.55556 15.746 3.55556C22.4786 3.55556 27.9365 9.01342 27.9365 15.746ZM15.746 25.9048C21.3565 25.9048 25.9048 21.3565 25.9048 15.746C25.9048 10.1355 21.3565 5.5873 15.746 5.5873C10.1355 5.5873 5.5873 10.1355 5.5873 15.746C5.5873 21.3565 10.1355 25.9048 15.746 25.9048ZM40.1341 15.4017C37.763 14.567 36.0635 12.3074 36.0635 9.65079C36.0635 6.28449 38.7924 3.55556 42.1587 3.55556C44.8153 3.55556 47.0749 5.2551 47.9097 7.62621C48.0238 7.62145 48.1386 7.61905 48.254 7.61905C48.3693 7.61905 48.4841 7.62145 48.5983 7.62621C49.433 5.2551 51.6926 3.55556 54.3492 3.55556C57.7155 3.55556 60.4444 6.28449 60.4444 9.65079C60.4444 12.3074 58.7449 14.567 56.3738 15.4017C56.3786 15.5159 56.381 15.6307 56.381 15.746C56.381 15.8614 56.3786 15.9762 56.3738 16.0903C58.7449 16.9251 60.4444 19.1847 60.4444 21.8413C60.4444 25.2076 57.7155 27.9365 54.3492 27.9365C51.6926 27.9365 49.433 26.237 48.5983 23.8659C48.4841 23.8706 48.3693 23.873 48.254 23.873C48.1386 23.873 48.0238 23.8706 47.9097 23.8659C47.0749 26.237 44.8153 27.9365 42.1587 27.9365C38.7924 27.9365 36.0635 25.2076 36.0635 21.8413C36.0635 19.1847 37.763 16.9251 40.1341 16.0903C40.1294 15.9762 40.127 15.8614 40.127 15.746C40.127 15.6307 40.1294 15.5159 40.1341 15.4017ZM40.4846 13.3545C41.2732 10.7894 43.2973 8.76529 45.8624 7.97664C45.2245 6.56758 43.8061 5.5873 42.1587 5.5873C39.9145 5.5873 38.0952 7.40659 38.0952 9.65079C38.0952 11.2982 39.0755 12.7165 40.4846 13.3545ZM38.0952 21.8413C38.0952 20.1939 39.0755 18.7755 40.4846 18.1376C41.2732 20.7027 43.2973 22.7268 45.8624 23.5154C45.2245 24.9245 43.8061 25.9048 42.1587 25.9048C39.9145 25.9048 38.0952 24.0855 38.0952 21.8413ZM54.3492 25.9048C52.7019 25.9048 51.2835 24.9245 50.6455 23.5154C53.2106 22.7268 55.2347 20.7027 56.0234 18.1376C57.4324 18.7755 58.4127 20.1939 58.4127 21.8413C58.4127 24.0855 56.5934 25.9048 54.3492 25.9048ZM58.4127 9.65079C58.4127 11.2982 57.4324 12.7165 56.0234 13.3545C55.2347 10.7894 53.2106 8.76529 50.6455 7.97664C51.2835 6.56758 52.7019 5.5873 54.3492 5.5873C56.5934 5.5873 58.4127 7.40659 58.4127 9.65079ZM48.254 21.8413C51.6203 21.8413 54.3492 19.1123 54.3492 15.746C54.3492 12.3797 51.6203 9.65079 48.254 9.65079C44.8877 9.65079 42.1587 12.3797 42.1587 15.746C42.1587 19.1123 44.8877 21.8413 48.254 21.8413ZM52.3175 15.746C52.3175 17.9902 50.4982 19.8095 48.254 19.8095C46.0098 19.8095 44.1905 17.9902 44.1905 15.746C44.1905 13.5018 46.0098 11.6825 48.254 11.6825C50.4982 11.6825 52.3175 13.5018 52.3175 15.746ZM50.2857 15.746C50.2857 16.8681 49.3761 17.7778 48.254 17.7778C47.1319 17.7778 46.2222 16.8681 46.2222 15.746C46.2222 14.6239 47.1319 13.7143 48.254 13.7143C49.3761 13.7143 50.2857 14.6239 50.2857 15.746ZM15.746 23.873C20.2344 23.873 23.873 20.2344 23.873 15.746C23.873 11.2576 20.2344 7.61905 15.746 7.61905C11.2576 7.61905 7.61905 11.2576 7.61905 15.746C7.61905 20.2344 11.2576 23.873 15.746 23.873ZM15.746 21.8413C19.1123 21.8413 21.8413 19.1123 21.8413 15.746C21.8413 12.3797 19.1123 9.65079 15.746 9.65079C12.3797 9.65079 9.65079 12.3797 9.65079 15.746C9.65079 19.1123 12.3797 21.8413 15.746 21.8413ZM15.746 19.8095C17.9902 19.8095 19.8095 17.9902 19.8095 15.746C19.8095 13.5018 17.9902 11.6825 15.746 11.6825C13.5018 11.6825 11.6825 13.5018 11.6825 15.746C11.6825 17.9902 13.5018 19.8095 15.746 19.8095ZM48.254 60.4444C54.9866 60.4444 60.4444 54.9866 60.4444 48.254C60.4444 41.5214 54.9866 36.0635 48.254 36.0635C41.5214 36.0635 36.0635 41.5214 36.0635 48.254C36.0635 54.9866 41.5214 60.4444 48.254 60.4444ZM58.4127 48.254C58.4127 53.8645 53.8645 58.4127 48.254 58.4127C42.6435 58.4127 38.0952 53.8645 38.0952 48.254C38.0952 42.6435 42.6435 38.0952 48.254 38.0952C53.8645 38.0952 58.4127 42.6435 58.4127 48.254ZM56.381 48.254C56.381 52.7424 52.7424 56.381 48.254 56.381C43.7656 56.381 40.127 52.7424 40.127 48.254C40.127 43.7656 43.7656 40.127 48.254 40.127C52.7424 40.127 56.381 43.7656 56.381 48.254ZM54.3492 48.254C54.3492 51.6203 51.6203 54.3492 48.254 54.3492C44.8877 54.3492 42.1587 51.6203 42.1587 48.254C42.1587 44.8877 44.8877 42.1587 48.254 42.1587C51.6203 42.1587 54.3492 44.8877 54.3492 48.254ZM52.3175 48.254C52.3175 50.4982 50.4982 52.3175 48.254 52.3175C46.0098 52.3175 44.1905 50.4982 44.1905 48.254C44.1905 46.0098 46.0098 44.1905 48.254 44.1905C50.4982 44.1905 52.3175 46.0098 52.3175 48.254ZM7.62621 47.9097C5.2551 47.0749 3.55556 44.8153 3.55556 42.1587C3.55556 38.7924 6.28449 36.0635 9.65079 36.0635C12.3074 36.0635 14.567 37.763 15.4017 40.1341C15.5159 40.1294 15.6307 40.127 15.746 40.127C15.8614 40.127 15.9762 40.1294 16.0903 40.1341C16.9251 37.763 19.1847 36.0635 21.8413 36.0635C25.2076 36.0635 27.9365 38.7924 27.9365 42.1587C27.9365 44.8153 26.237 47.0749 23.8659 47.9097C23.8706 48.0238 23.873 48.1386 23.873 48.254C23.873 48.3693 23.8706 48.4841 23.8659 48.5983C26.237 49.433 27.9365 51.6926 27.9365 54.3492C27.9365 57.7155 25.2076 60.4444 21.8413 60.4444C19.1847 60.4444 16.9251 58.7449 16.0903 56.3738C15.9762 56.3786 15.8614 56.381 15.746 56.381C15.6307 56.381 15.5159 56.3786 15.4017 56.3738C14.567 58.7449 12.3074 60.4444 9.65079 60.4444C6.28449 60.4444 3.55556 57.7155 3.55556 54.3492C3.55556 51.6926 5.2551 49.433 7.62621 48.5983C7.62145 48.4841 7.61905 48.3693 7.61905 48.254C7.61905 48.1386 7.62145 48.0238 7.62621 47.9097ZM7.97664 45.8624C8.76529 43.2973 10.7894 41.2732 13.3545 40.4846C12.7165 39.0755 11.2982 38.0952 9.65079 38.0952C7.40659 38.0952 5.5873 39.9145 5.5873 42.1587C5.5873 43.8061 6.56758 45.2245 7.97664 45.8624ZM5.5873 54.3492C5.5873 52.7019 6.56758 51.2835 7.97664 50.6455C8.76529 53.2106 10.7894 55.2347 13.3545 56.0234C12.7165 57.4324 11.2982 58.4127 9.65079 58.4127C7.40659 58.4127 5.5873 56.5934 5.5873 54.3492ZM21.8413 58.4127C20.1939 58.4127 18.7755 57.4324 18.1376 56.0234C20.7027 55.2347 22.7268 53.2106 23.5154 50.6455C24.9245 51.2835 25.9048 52.7019 25.9048 54.3492C25.9048 56.5934 24.0855 58.4127 21.8413 58.4127ZM25.9048 42.1587C25.9048 43.8061 24.9245 45.2245 23.5154 45.8624C22.7268 43.2973 20.7027 41.2732 18.1376 40.4846C18.7755 39.0755 20.1939 38.0952 21.8413 38.0952C24.0855 38.0952 25.9048 39.9145 25.9048 42.1587ZM15.746 54.3492C19.1123 54.3492 21.8413 51.6203 21.8413 48.254C21.8413 44.8877 19.1123 42.1587 15.746 42.1587C12.3797 42.1587 9.65079 44.8877 9.65079 48.254C9.65079 51.6203 12.3797 54.3492 15.746 54.3492ZM15.746 52.3175C17.9902 52.3175 19.8095 50.4982 19.8095 48.254C19.8095 46.0098 17.9902 44.1905 15.746 44.1905C13.5018 44.1905 11.6825 46.0098 11.6825 48.254C11.6825 50.4982 13.5018 52.3175 15.746 52.3175ZM15.746 50.2857C16.8681 50.2857 17.7778 49.3761 17.7778 48.254C17.7778 47.1319 16.8681 46.2222 15.746 46.2222C14.6239 46.2222 13.7143 47.1319 13.7143 48.254C13.7143 49.3761 14.6239 50.2857 15.746 50.2857Z" fill="white" fill-opacity="0.3"/>
    </g>
</svg>
