<svg width="89" height="226" viewBox="0 0 89 226" fill="none" xmlns="http://www.w3.org/2000/svg">
    <path d="M44.2487 224.699C49.1267 224.668 60.5685 224.088 67.3113 222.015C75.7398 219.424 81.9455 210.354 82.4086 208.965C82.4645 208.798 82.5662 208.529 82.702 208.171C83.691 205.56 86.4839 198.186 86.4839 190.455L44.2487 215.444L2.01351 190.455C2.01351 198.186 4.8064 205.56 5.79542 208.171C5.93117 208.529 6.03294 208.798 6.08883 208.965C6.55194 210.354 12.7575 219.424 21.1861 222.015C27.9289 224.088 39.3707 224.668 44.2487 224.699Z" fill="#362F2D"/>
    <path fill-rule="evenodd" clip-rule="evenodd" d="M44.2519 225.199L44.2455 225.199C39.3655 225.168 27.8585 224.59 21.0391 222.493C16.7103 221.162 12.9815 218.18 10.2903 215.386C8.94109 213.985 7.84328 212.621 7.05152 211.517C6.65569 210.965 6.33441 210.475 6.09551 210.075C5.86313 209.686 5.69084 209.352 5.61453 209.123C5.56266 208.968 5.46561 208.711 5.32784 208.348L5.32426 208.338C4.33235 205.72 1.51351 198.278 1.51351 190.455L1.51351 189.578L44.2487 214.863L86.9839 189.578L86.9839 190.455C86.9839 198.278 84.165 205.72 83.1731 208.338L83.1696 208.348C83.0318 208.711 82.9347 208.968 82.8829 209.124C82.8066 209.352 82.6343 209.686 82.4019 210.075C82.163 210.475 81.8417 210.965 81.4459 211.517C80.6541 212.621 79.5563 213.985 78.2071 215.386C75.5159 218.18 71.7871 221.162 67.4583 222.493C60.6389 224.59 49.1319 225.168 44.2519 225.199ZM44.2487 224.199C49.1265 224.168 60.4996 223.586 67.1644 221.537C71.2641 220.277 74.8524 217.428 77.4868 214.692C78.8005 213.328 79.8677 212.002 80.6331 210.934C81.0159 210.4 81.3213 209.934 81.5433 209.562C81.7719 209.179 81.8948 208.925 81.9343 208.807C81.9933 208.63 82.0977 208.354 82.2288 208.008L82.2344 207.994C83.1855 205.483 85.7729 198.643 85.9718 191.339L44.2487 216.025L2.52565 191.339C2.72446 198.643 5.31194 205.483 6.263 207.994L6.26904 208.009C6.39993 208.355 6.50413 208.63 6.56313 208.807C6.60259 208.925 6.72553 209.179 6.95408 209.562C7.17612 209.934 7.48148 210.4 7.86424 210.934C8.62969 212.002 9.69689 213.328 11.0106 214.692C13.645 217.428 17.2333 220.277 21.333 221.537C27.9978 223.586 39.3709 224.168 44.2487 224.199Z" fill="#1B1817"/>
    <path d="M44.2487 222.571C49.1267 222.542 60.5685 221.999 67.3113 220.061C75.7398 217.637 81.9455 209.155 82.4086 207.857C82.4645 207.701 82.5662 207.449 82.702 207.114C83.691 204.672 86.4839 197.777 86.4839 190.547L44.2487 213.916L2.01351 190.547C2.01351 197.777 4.8064 204.672 5.79542 207.114C5.93117 207.449 6.03294 207.701 6.08883 207.857C6.55194 209.155 12.7575 217.637 21.1861 220.061C27.9289 221.999 39.3707 222.542 44.2487 222.571Z" fill="#362F2D"/>
    <path fill-rule="evenodd" clip-rule="evenodd" d="M44.2517 223.071L44.2457 223.071C39.3661 223.042 27.863 222.501 21.0479 220.541C16.7238 219.298 12.9955 216.511 10.3021 213.896C8.95229 212.585 7.85369 211.309 7.06107 210.275C6.66484 209.758 6.34297 209.299 6.10339 208.924C5.87111 208.56 5.69628 208.245 5.6179 208.025C5.56651 207.881 5.46999 207.643 5.33199 207.302L5.32784 207.292C4.33578 204.842 1.51351 197.875 1.51351 190.547L1.51351 189.699L44.2487 213.344L86.9839 189.699L86.9839 190.547C86.9839 197.875 84.1617 204.842 83.1696 207.292L83.1654 207.302C83.0274 207.643 82.9309 207.881 82.8795 208.025C82.8011 208.245 82.6263 208.56 82.394 208.924C82.1544 209.299 81.8326 209.758 81.4363 210.275C80.6437 211.309 79.5451 212.585 78.1953 213.896C75.5019 216.511 71.7736 219.298 67.4495 220.541C60.6344 222.501 49.1313 223.042 44.2517 223.071ZM44.2487 222.071C49.1267 222.041 60.504 221.498 67.1732 219.58C71.2775 218.4 74.8664 215.734 77.4987 213.178C78.8117 211.903 79.8781 210.664 80.6427 209.667C81.0251 209.168 81.3298 208.732 81.5512 208.386C81.7798 208.028 81.9002 207.794 81.9376 207.689C81.9971 207.523 82.1018 207.264 82.2324 206.941L82.2385 206.926C83.1886 204.581 85.7657 198.209 85.9709 191.403L44.2487 214.487L2.52651 191.403C2.73173 198.209 5.30883 204.581 6.25884 206.926L6.26521 206.942C6.39575 207.264 6.50034 207.523 6.55976 207.689C6.59715 207.794 6.71755 208.028 6.94621 208.386C7.16757 208.732 7.47233 209.168 7.85469 209.667C8.61926 210.664 9.68569 211.903 10.9987 213.178C13.631 215.734 17.2198 218.4 21.3242 219.58C27.9934 221.498 39.3707 222.041 44.2487 222.071Z" fill="#1B1817"/>
    <path fill-rule="evenodd" clip-rule="evenodd" d="M1.82816 188.048C2.12455 195.008 4.42155 201.314 5.533 203.597L8.40427 208.04L14.7025 212.853L11.4608 149.362L1.64292 156.951C1.58117 164.417 1.53177 181.089 1.82816 188.048ZM1.64294 33.9488L1.64294 57.272L4.51419 63.8432L44.2486 63.8432L83.983 63.8432L86.8543 57.272L86.8543 33.9488C86.8543 25.835 84.687 8.756 76.0176 5.35007C65.181 1.09265 48.8797 1.0001 44.2486 1.0001C39.6176 1.0001 23.3163 1.09266 12.4796 5.35006C3.81028 8.756 1.64294 25.835 1.64294 33.9488ZM86.669 188.048C86.3727 195.008 84.0757 201.314 82.9642 203.597L80.0929 208.04L73.7947 212.853L77.0364 149.362L86.8543 156.951C86.916 164.417 86.9654 181.089 86.669 188.048Z" fill="#362F2D"/>
    <path fill-rule="evenodd" clip-rule="evenodd" d="M15.2569 213.906L8.03156 208.384L5.09667 203.843L5.08344 203.816C3.94825 201.484 1.62848 195.111 1.32862 188.07C1.03157 181.095 1.08122 164.409 1.14293 156.947L1.14495 156.704L11.9114 148.381L15.2569 213.906ZM73.2403 213.906L76.5858 148.381L87.3523 156.704L87.3543 156.947C87.416 164.409 87.4656 181.095 87.1686 188.07C86.8687 195.111 84.5489 201.484 83.4138 203.816L83.4005 203.843L80.4656 208.384L73.2403 213.906ZM14.1481 211.8L11.0102 150.342L2.14093 157.198C2.08012 164.78 2.03514 181.157 2.32772 188.027C2.61946 194.878 4.87672 201.094 5.96947 203.352L8.77698 207.695L14.1481 211.8ZM79.7202 207.695L82.5277 203.352C83.6205 201.094 85.8778 194.878 86.1695 188.027C86.4621 181.157 86.4171 164.78 86.3563 157.198L77.487 150.342L74.3491 211.8L79.7202 207.695ZM4.18702 64.3432L1.14294 57.3765L1.14294 33.9488C1.14295 29.8586 1.68809 23.5123 3.32939 17.7471C4.15016 14.8641 5.25072 12.106 6.70873 9.8437C8.16657 7.58167 10.0008 5.7868 12.2968 4.88474C17.781 2.73014 24.6212 1.63746 30.6452 1.08074C36.6772 0.52328 41.9286 0.500164 44.2486 0.500164C46.5687 0.500164 51.82 0.523282 57.852 1.08073C63.8761 1.63746 70.7162 2.73013 76.2005 4.88475C78.4965 5.78679 80.3307 7.58168 81.7885 9.84369C83.2465 12.106 84.3471 14.8641 85.1678 17.7471C86.8091 23.5123 87.3543 29.8586 87.3543 33.9488L87.3543 57.3765L84.3102 64.3432L4.18702 64.3432ZM83.6559 63.3432L86.3543 57.1676L86.3543 33.9488C86.3543 29.9252 85.8158 23.6752 84.2061 18.0209C83.4013 15.1943 82.3346 12.5369 80.9479 10.3854C79.5612 8.23364 77.8734 6.61642 75.8348 5.8155C70.4824 3.71271 63.7536 2.6304 57.76 2.07649C51.7744 1.52333 46.5596 1.50016 44.2486 1.50016C41.9376 1.50016 36.7228 1.52333 30.7372 2.0765C24.7437 2.6304 18.0148 3.7127 12.6624 5.8155C10.6238 6.61642 8.93608 8.23365 7.54929 10.3854C6.16267 12.5369 5.0959 15.1943 4.29117 18.0209C2.68147 23.6752 2.14295 29.9253 2.14294 33.9488L2.14294 57.1675L4.84138 63.3432L83.6559 63.3432Z" fill="#1B1817"/>
    <path d="M6.08888 60.0486C6.73723 50.4231 8.27473 29.6914 9.238 23.768C10.4421 16.3638 12.7576 11.6437 16.092 10.533L17.8517 66.8975L6.08888 60.0486Z" fill="#413835"/>
    <path d="M81.7603 59.6784C81.1119 50.0529 79.5744 29.3212 78.6111 23.3978C77.4071 15.9936 75.0915 11.2735 71.7572 10.1628L73.7022 66.5273L81.7603 59.6784Z" fill="#413835"/>
    <path fill-rule="evenodd" clip-rule="evenodd" d="M18.3797 67.7834L5.56923 60.3246L5.59008 60.015C6.23754 50.4027 7.77651 29.6406 8.74455 23.6878C9.35104 19.9583 10.2422 16.8712 11.4209 14.5631C12.5972 12.2597 14.092 10.6723 15.934 10.0587L16.5708 9.84659L18.3797 67.7834ZM73.2382 67.5779L71.2327 9.46117L71.9153 9.6885C73.7573 10.3021 75.2521 11.8895 76.4284 14.1929C77.6071 16.501 78.4982 19.5881 79.1047 23.3176C80.0728 29.2704 81.6117 50.0325 82.2592 59.6448L82.2761 59.8962L73.2382 67.5779ZM17.3239 66.0115L15.6149 11.2743C14.3787 11.9052 13.2667 13.1475 12.3115 15.0179C11.1978 17.1986 10.3292 20.1736 9.73159 23.8483C8.78324 29.6799 7.26949 50.0073 6.60871 59.7727L17.3239 66.0115ZM81.2445 59.4606C80.5858 49.7181 79.0679 29.3213 78.1177 23.4781C77.5201 19.8034 76.6514 16.8284 75.5378 14.6477C74.5954 12.8024 73.5004 11.5684 72.284 10.9298L74.1663 65.4767L81.2445 59.4606Z" fill="#1B1817"/>
    <path fill-rule="evenodd" clip-rule="evenodd" d="M1.70188 156.951C6.07359 157.247 7.90749 155.779 8.18535 155.007C8.74724 140.121 9.46003 117.732 9.7924 98.4713L9.22958 101.063L9.16864 101.343L8.89554 101.432L1.70189 103.771L1.70188 156.951ZM8.31331 100.57L9.87197 93.3932C10.1175 75.8243 9.982 61.8861 9.01895 60.5113C6.94423 57.5496 3.2147 57.1177 1.70189 57.272L1.70189 102.719L8.31331 100.57ZM86.8542 156.951C82.4825 157.247 80.6486 155.778 80.3708 155.007C79.8089 140.121 79.0961 117.732 78.7638 98.4717L79.3265 101.063L79.3874 101.343L79.6605 101.432L86.8543 103.771L86.8542 156.951ZM80.2427 100.57L78.6842 93.3936C78.4386 75.8245 78.5741 61.8861 79.5372 60.5113C81.6119 57.5496 85.3414 57.1177 86.8543 57.2719L86.8543 102.719L80.2427 100.57Z" fill="#E9C873"/>
    <path fill-rule="evenodd" clip-rule="evenodd" d="M7.68913 154.895C8.21771 140.877 8.87855 120.254 9.23071 101.849L2.20179 104.134L2.20178 156.477C4.08031 156.553 5.40636 156.279 6.28894 155.917C7.18224 155.55 7.57398 155.117 7.68913 154.895ZM6.66848 156.842C5.54304 157.304 3.91213 157.602 1.66798 157.45L1.20178 157.418L1.20179 56.8203L1.65107 56.7745C2.47735 56.6903 3.85899 56.7673 5.3073 57.2487C6.76125 57.7319 8.31401 58.6337 9.42837 60.2244C9.53555 60.3774 9.6108 60.5746 9.66928 60.7722C9.73052 60.9791 9.7851 61.2283 9.83464 61.5124C9.93382 62.0811 10.0186 62.8241 10.0913 63.7179C10.2368 65.5074 10.3366 67.9392 10.3985 70.8689C10.5222 76.7302 10.4946 84.614 10.3718 93.4001L10.3711 93.4503L9.3037 98.3652L10.2922 98.4799C9.95978 117.745 9.24687 140.137 8.6849 155.026L8.68198 155.104L8.65566 155.177C8.44803 155.753 7.76869 156.391 6.66848 156.842ZM81.8875 156.842C80.7873 156.391 80.108 155.753 79.9004 155.177L79.8741 155.104L79.8711 155.026C79.3092 140.137 78.5963 117.746 78.2638 98.4803L79.2524 98.3656L78.1849 93.4507L78.1842 93.4005C78.0614 84.6142 78.0338 76.7304 78.1576 70.869C78.2194 67.9393 78.3192 65.5074 78.4647 63.7179C78.5374 62.8241 78.6222 62.0811 78.7214 61.5124C78.771 61.2282 78.8255 60.9791 78.8868 60.7722C78.9452 60.5746 79.0205 60.3774 79.1277 60.2244C80.242 58.6336 81.7948 57.7318 83.2487 57.2486C84.6971 56.7673 86.0787 56.6902 86.905 56.7745L87.3543 56.8203L87.3542 157.418L86.888 157.45C84.6439 157.602 83.013 157.304 81.8875 156.842ZM86.3542 156.477L86.3543 104.134L79.3253 101.849C79.6775 120.254 80.3383 140.877 80.8669 154.895C80.9821 155.117 81.3738 155.55 82.2671 155.917C83.1497 156.279 84.4757 156.552 86.3542 156.477ZM7.88555 100.183L9.37263 93.3361C9.49477 84.5735 9.52183 76.7225 9.3987 70.89C9.33698 67.9671 9.23768 65.5586 9.0946 63.799C9.02298 62.9182 8.94112 62.2095 8.84951 61.6842C8.80367 61.4213 8.75683 61.2129 8.7104 61.056C8.6612 60.8898 8.62254 60.817 8.60934 60.7982C7.64898 59.4272 6.29962 58.6322 4.99191 58.1976C3.92878 57.8443 2.91402 57.7365 2.20179 57.7454L2.20179 102.031L7.88555 100.183ZM86.3543 102.031L86.3543 57.7454C85.642 57.7365 84.6273 57.8443 83.5641 58.1976C82.2564 58.6322 80.9071 59.4272 79.9467 60.7981C79.9335 60.817 79.8948 60.8898 79.8457 61.056C79.7992 61.2129 79.7524 61.4213 79.7065 61.6842C79.6149 62.2095 79.5331 62.9182 79.4614 63.799C79.3184 65.5586 79.2191 67.9672 79.1574 70.8901C79.0342 76.7227 79.0613 84.5738 79.1834 93.3364L80.6704 100.183L86.3543 102.031Z" fill="#1B1817"/>
    <path d="M79.352 159.265C79.8151 158.123 80.7413 155.489 80.7413 154.082C80.7413 152.675 80.7413 119.837 80.8339 103.641L80.9265 99.4758L79.352 60.6964L79.2593 59.0304L77.9627 48.3869C77.7157 45.6103 76.2955 39.0946 72.5906 35.2444L61.1982 53.94L61.1982 134.09L79.352 159.265Z" fill="#362F2D"/>
    <path d="M9.23783 159.265C8.77473 158.123 7.84852 155.489 7.84852 154.082C7.84852 152.675 7.84852 119.837 7.7559 103.641L7.66328 99.4758L9.23784 60.6963L9.33046 59.0304L10.6272 48.3869C10.8741 45.6103 12.2943 39.0946 15.9992 35.2444L27.3916 53.94L27.3916 134.09L9.23783 159.265Z" fill="#362F2D"/>
    <path fill-rule="evenodd" clip-rule="evenodd" d="M79.4753 160.291L60.6983 134.252L60.6983 53.7997L72.5012 34.4303L72.9509 34.8977C74.8733 36.8955 76.1846 39.5621 77.0459 42.0549C77.9069 44.5467 78.3321 46.9055 78.46 48.3344L79.7577 58.9862L79.8512 60.6686L79.8516 60.676L81.4268 99.4712L81.3339 103.648C81.2413 119.844 81.2413 152.674 81.2413 154.082C81.2413 154.864 80.9899 155.935 80.6997 156.915C80.405 157.909 80.0521 158.869 79.8153 159.453L79.4753 160.291ZM9.11449 160.291L8.77453 159.453C8.53774 158.869 8.18478 157.909 7.89011 156.915C7.59995 155.935 7.34853 154.864 7.34853 154.082C7.34853 152.674 7.34853 119.844 7.25595 103.648C7.25595 103.646 7.25593 103.645 7.25593 103.643L7.16307 99.4712L8.73827 60.676L8.73863 60.6686L8.83216 58.9862L10.1299 48.3343C10.2578 46.9054 10.683 44.5466 11.5439 42.0549C12.4052 39.5621 13.7166 36.8955 15.6389 34.8977L16.0886 34.4303L27.8916 53.7996L27.8916 134.252L9.11449 160.291ZM79.2156 158.221C79.3872 157.747 79.5739 157.194 79.7409 156.631C80.0296 155.656 80.2413 154.706 80.2413 154.082C80.2413 152.674 80.2413 119.836 80.3339 103.638L80.334 103.63L80.4263 99.4804L78.8528 60.7241L78.8524 60.7166L78.761 59.0745L77.4654 48.4392L77.4646 48.4312C77.3447 47.0827 76.9363 44.7996 76.1008 42.3815C75.3347 40.1643 74.2212 37.8678 72.6706 36.0741L61.6983 54.0803L61.6983 133.929L79.2156 158.221ZM26.8916 133.929L26.8916 54.0803L15.9192 36.0741C14.3686 37.8678 13.2552 40.1643 12.4891 42.3815C11.6536 44.7996 11.2452 47.0827 11.1252 48.4311L11.1245 48.4392L9.82879 59.0745L9.73744 60.7166L9.73708 60.7241L8.16352 99.4804L8.2558 103.63L8.25591 103.638C8.34854 119.836 8.34853 152.675 8.34853 154.082C8.34853 154.706 8.56021 155.656 8.84894 156.631C9.01588 157.194 9.20266 157.747 9.37424 158.221L26.8916 133.929Z" fill="#1B1817"/>
    <path d="M60.4571 218.961C61.3525 218.899 63.3654 218.683 64.2546 218.313C65.1437 217.943 73.0227 213.47 76.851 211.279C78.0551 200.019 80.3151 173.777 79.3519 159.265L44.2484 167.872L9.23779 159.265C8.27453 173.777 10.4417 200.019 11.6458 211.279C15.4741 213.47 23.3531 217.943 24.2423 218.313C25.1314 218.683 27.1444 218.899 28.0397 218.961L44.2484 220.257L60.4571 218.961Z" fill="#362F2D"/>
    <path fill-rule="evenodd" clip-rule="evenodd" d="M44.2485 220.759L28.0055 219.46C28.0046 219.46 28.0036 219.46 28.0027 219.46C27.5438 219.428 26.805 219.357 26.0653 219.248C25.3392 219.14 24.558 218.986 24.0502 218.775C23.7968 218.669 23.1077 218.303 22.1973 217.805C21.2714 217.298 20.0817 216.634 18.8014 215.915C16.2405 214.476 13.3125 212.809 11.3976 211.713L11.1759 211.586L11.1488 211.333C9.94496 200.074 7.77252 173.793 8.73901 159.232L8.77849 158.637L44.2487 167.357L79.8114 158.637L79.8509 159.232C80.8174 173.794 78.5519 200.077 77.3483 211.333L77.3212 211.587L77.0995 211.713C75.1846 212.809 72.2566 214.476 69.6957 215.915C68.4154 216.634 67.2257 217.298 66.2998 217.805C65.3894 218.303 64.7003 218.669 64.4469 218.775C63.9391 218.986 63.1579 219.14 62.4318 219.248C61.6921 219.358 60.9533 219.428 60.4944 219.46C60.4934 219.46 60.4925 219.46 60.4916 219.46L44.2485 220.759ZM44.2485 219.755L60.4229 218.462C60.8595 218.432 61.5733 218.364 62.2848 218.258C63.0112 218.15 63.6811 218.011 64.0625 217.852C64.2536 217.772 64.8829 217.44 65.8195 216.928C66.7406 216.423 67.9266 215.762 69.2058 215.043C71.6668 213.66 74.4682 212.066 76.381 210.972C77.5754 199.727 79.7456 174.359 78.8904 159.893L44.2484 168.387L9.69945 159.893C8.84181 174.36 10.9233 199.73 12.1161 210.972C14.0289 212.066 16.8303 213.66 19.2913 215.043C20.5705 215.762 21.7565 216.423 22.6776 216.928C23.6142 217.44 24.2435 217.772 24.4346 217.852C24.816 218.011 25.4859 218.15 26.2123 218.258C26.9238 218.364 27.6376 218.432 28.0742 218.462L28.0797 218.463L44.2485 219.755Z" fill="#1B1817"/>
    <path d="M44.2487 220.719L60.2721 218.905C60.4882 218.939 61.0686 218.381 61.6614 215.882C62.4024 212.757 67.867 186.552 69.2564 162.967C64.6253 164.579 53.1403 167.805 44.2487 167.805C35.3571 167.805 23.872 164.579 19.241 162.967C20.6303 186.552 26.095 212.757 26.8359 215.882C27.4287 218.381 28.0091 218.939 28.2252 218.905L44.2487 220.719Z" fill="#413835"/>
    <path fill-rule="evenodd" clip-rule="evenodd" d="M44.2487 221.223L28.2112 219.407C27.969 219.409 27.776 219.272 27.6617 219.166C27.5135 219.03 27.3715 218.835 27.2337 218.584C26.9569 218.081 26.6508 217.268 26.3494 215.997C25.6048 212.857 20.1335 186.621 18.7419 162.996L18.6978 162.248L19.4054 162.495C24.0202 164.102 35.4418 167.305 44.2487 167.305C53.0556 167.305 64.4772 164.102 69.0919 162.495L69.7996 162.248L69.7555 162.996C68.3639 186.621 62.8926 212.857 62.1479 215.997C61.8465 217.268 61.5405 218.081 61.2636 218.584C61.1259 218.835 60.9839 219.03 60.8357 219.166C60.7214 219.272 60.5284 219.409 60.2862 219.407L44.2487 221.223ZM60.1763 218.413C60.2201 218.367 60.2933 218.273 60.3874 218.102C60.603 217.71 60.8836 216.995 61.1749 215.766C61.9045 212.69 67.2561 187.03 68.7122 163.68C63.6812 165.359 52.7983 168.305 44.2487 168.305C35.6991 168.305 24.8162 165.359 19.7852 163.68C21.2413 187.03 26.5929 212.69 27.3224 215.766C27.6138 216.995 27.8944 217.71 28.1099 218.102C28.2041 218.273 28.2772 218.367 28.321 218.413L44.2487 220.216L60.1763 218.413ZM28.3595 218.447C28.3595 218.448 28.3567 218.446 28.3508 218.441C28.3565 218.444 28.3595 218.447 28.3595 218.447ZM60.1466 218.441C60.1407 218.446 60.1378 218.448 60.1379 218.447C60.1379 218.447 60.1408 218.444 60.1466 218.441Z" fill="#1B1817"/>
    <path d="M72.5906 35.4294C72.8081 31.8082 73.0096 21.7613 72.4877 10.5446C70.2916 9.3594 61.7873 7.01025 45.1748 6.92565L45.1748 6.9233L43.3224 6.9233L43.3224 6.92565C26.7101 7.01025 18.2056 9.3594 16.0095 10.5446C15.4876 21.7613 15.6891 31.8081 15.9066 35.4294L43.7698 28.7657L44.7274 28.7657L72.5906 35.4294Z" fill="#E9C873"/>
    <path fill-rule="evenodd" clip-rule="evenodd" d="M45.1748 6.92565L45.1748 6.9233L43.3224 6.9233L43.3224 6.92565C26.7101 7.01025 18.2056 9.3594 16.0095 10.5446C15.5303 20.8431 15.661 30.1555 15.8539 34.4138C15.8711 34.7935 15.8888 35.133 15.9066 35.4294L43.7698 28.7657L44.7274 28.7657L72.5906 35.4294C72.6084 35.133 72.6261 34.7935 72.6433 34.4138C72.8362 30.1555 72.9669 20.8431 72.4877 10.5446C70.2916 9.3594 61.7873 7.01025 45.1748 6.92565ZM71.516 11.1886C70.3103 10.6722 67.8961 9.94582 64.073 9.3088C59.6563 8.57286 53.4311 7.96771 45.1697 7.92564L44.7106 7.9233L43.7866 7.9233L43.3275 7.92564C35.0662 7.96771 28.841 8.57286 24.4243 9.3088C20.6012 9.94582 18.187 10.6722 16.9812 11.1886C16.5422 21.0724 16.6616 29.9574 16.8444 34.177L43.6518 27.7657L44.8454 27.7657L71.6528 34.177C71.8356 29.9574 71.955 21.0724 71.516 11.1886Z" fill="#1B1817"/>
    <path d="M79.3521 159.266C70.0159 166.67 51.6893 169.632 44.2487 169.539C36.8082 169.632 18.5742 166.669 9.238 159.265C10.4815 154.489 12.8637 145.594 14.8602 138.14C16.3334 132.639 17.5965 127.923 18.037 126.225L44.2487 130.39L70.4605 126.225C70.8962 127.904 72.1533 132.538 73.6251 137.963L73.6252 137.963C75.6573 145.454 78.0987 154.453 79.3521 159.266Z" fill="#1B1817"/>
    <path d="M71.6645 41.9096C70.8495 46.204 69.0403 58.1988 68.2376 63.6594L44.2488 61.4382L20.2599 63.6594C19.4572 58.1988 17.648 46.204 16.833 41.9096C16.0179 37.6152 15.8759 35.6778 15.9068 35.2458C18.1297 32.6235 26.9101 27.3789 44.2488 27.3789C61.5874 27.3789 70.3679 32.6235 72.5908 35.2458C72.6216 35.6778 72.4796 37.6152 71.6645 41.9096Z" fill="#1B1817"/>
    <path d="M81.0193 142.79L77.4071 141.68C75.215 135.88 70.8125 121.67 70.7384 111.23C70.6643 100.79 70.7075 99.3523 70.7384 99.9385C73.023 100.586 78.2407 102.234 80.8341 103.641L81.0193 142.79Z" fill="#1B1817"/>
    <path d="M80.9267 99.4757C78.9508 98.7045 74.1468 97.0879 70.7384 96.7917C70.4296 89.3875 70.1641 73.45 71.572 68.9334C73.0539 66.8973 76.6846 62.3992 79.3521 60.6963C80.1857 65.509 80.5562 81.7797 80.9267 99.4757Z" fill="#1B1817"/>
    <path d="M79.2595 59.1229C78.0554 59.9559 74.9063 62.5658 71.9424 66.342C72.6525 62.0229 74.9248 52.4221 77.9628 48.5719C78.1789 49.1581 78.6667 52.0889 79.2595 59.1229Z" fill="#1B1817"/>
    <path d="M11.183 141.68L7.57082 142.79L7.75606 103.641C10.3495 102.234 15.5671 100.586 17.8518 99.9385C17.8826 99.3523 17.9259 100.79 17.8518 111.23C17.7777 121.67 13.3751 135.88 11.183 141.68Z" fill="#1B1817"/>
    <path d="M17.8518 96.7917C14.4433 97.0879 9.63936 98.7044 7.66344 99.4757C8.03393 81.7797 8.40442 65.509 9.23801 60.6963C11.9055 62.3992 15.5362 66.8973 17.0182 68.9334C18.426 73.45 18.1605 89.3875 17.8518 96.7917Z" fill="#1B1817"/>
    <path d="M16.6477 66.342C13.6838 62.5658 10.5347 59.9559 9.33063 59.1229C9.92341 52.0889 10.4112 49.1581 10.6273 48.5719C13.6653 52.4221 15.9376 62.0229 16.6477 66.342Z" fill="#1B1817"/>
    <path fill-rule="evenodd" clip-rule="evenodd" d="M44.2487 170.039C40.4755 170.085 34.0168 169.36 27.3336 167.698C20.6536 166.038 13.6788 163.425 8.92727 159.656L8.67198 159.454L8.7541 159.139C9.99815 154.361 12.3809 145.465 14.377 138.011C15.8506 132.509 17.1132 127.794 17.553 126.099L17.667 125.66L44.2487 129.883L70.8304 125.66L70.9444 126.099C71.3792 127.775 72.6351 132.405 74.1074 137.831C74.1075 137.832 74.1074 137.831 74.1074 137.831L74.1077 137.832L74.1083 137.835C76.14 145.324 78.5819 154.324 79.8359 159.14L79.918 159.455L79.6628 159.658C74.9109 163.426 67.9126 166.039 61.2097 167.699C54.5035 169.361 48.0218 170.085 44.2487 170.039ZM78.7854 159.074C77.5104 154.194 75.1313 145.425 73.1428 138.095C73.1427 138.095 73.1428 138.095 73.1428 138.095L73.1425 138.094L73.1403 138.086C71.7831 133.083 70.6075 128.75 70.0914 126.79L44.2487 130.896L18.4063 126.79C17.8863 128.773 16.7039 133.188 15.3431 138.269C13.3899 145.562 11.0683 154.231 9.80463 159.073C14.3845 162.603 21.066 165.11 27.5748 166.728C34.1991 168.375 40.5743 169.085 44.2425 169.039L44.2549 169.039C47.9233 169.085 54.3217 168.375 60.9693 166.729C67.5012 165.111 74.205 162.605 78.7854 159.074ZM81.5225 143.468L77.0259 142.086L76.9393 141.856C74.7427 136.044 70.3131 121.766 70.2383 111.233C70.2013 106.013 70.1935 103.042 70.199 101.448C70.2017 100.653 70.2076 100.195 70.2152 99.9706C70.217 99.9148 70.2192 99.8677 70.2219 99.8313C70.2231 99.8145 70.2251 99.7908 70.2287 99.7665C70.2302 99.7557 70.2339 99.7319 70.2413 99.7037C70.2449 99.69 70.2524 99.6634 70.266 99.6318C70.2745 99.6118 70.3095 99.53 70.3914 99.456C70.4381 99.4139 70.5174 99.3587 70.63 99.3364C70.7501 99.3127 70.8624 99.3356 70.9508 99.3798C71.0387 99.4238 71.096 99.4846 71.13 99.5305C73.5274 100.222 78.5182 101.816 81.0724 103.201L81.3326 103.342L81.5225 143.468ZM70.2351 99.9059C70.2351 99.9056 70.2351 99.9061 70.2351 99.9059ZM71.2042 100.594C71.202 100.818 71.2001 101.1 71.199 101.451C71.1936 103.039 71.2013 106.007 71.2383 111.226C71.3108 121.44 75.5747 135.349 77.7887 141.274L80.516 142.112L80.3354 103.943C77.9357 102.708 73.6118 101.302 71.2042 100.594ZM7.06757 143.468L7.25744 103.342L7.51762 103.201C10.0719 101.816 15.0626 100.222 17.4601 99.5305C17.4941 99.4846 17.5514 99.4238 17.6392 99.3798C17.7276 99.3356 17.84 99.3127 17.9601 99.3364C18.0727 99.3587 18.152 99.4139 18.1987 99.456C18.2806 99.53 18.3154 99.6114 18.3239 99.6314C18.3375 99.6631 18.3451 99.69 18.3487 99.7037C18.3561 99.7319 18.3598 99.7557 18.3614 99.7665C18.3649 99.7908 18.3669 99.8145 18.3682 99.8313C18.3709 99.8677 18.373 99.9148 18.3749 99.9706C18.3824 100.195 18.3884 100.653 18.3911 101.448C18.3965 103.042 18.3888 106.013 18.3517 111.233C18.277 121.766 13.8473 136.044 11.6507 141.856L11.5641 142.086L7.06757 143.468ZM17.3858 100.594C14.9782 101.302 10.6543 102.708 8.2546 103.943L8.07399 142.112L10.8013 141.274C13.0154 135.349 17.2792 121.44 17.3517 111.226C17.3888 106.007 17.3965 103.039 17.3911 101.451C17.3899 101.1 17.3881 100.818 17.3858 100.594ZM81.4422 100.214L80.7448 99.9415C78.7765 99.1732 74.0283 97.5795 70.695 97.2898L70.2571 97.2518L70.2388 96.8125C70.0841 93.1038 69.9403 87.2589 70.0114 81.7732C70.047 79.0307 70.1364 76.3724 70.3057 74.1131C70.4741 71.867 70.724 69.9734 71.0946 68.7846L71.1191 68.7059L71.1676 68.6392C71.9174 67.609 73.2061 65.9621 74.645 64.3562C76.0756 62.7597 77.6881 61.1654 79.083 60.2748L79.7165 59.8704L79.8447 60.6109C80.2686 63.0582 80.57 68.3675 80.8127 75.2371C81.056 82.1226 81.2413 90.618 81.4265 99.4653L81.4422 100.214ZM7.14785 100.214L7.16352 99.4653C7.34875 90.618 7.53406 82.1226 7.77734 75.2371C8.02005 68.3675 8.32141 63.0582 8.7453 60.6109L8.87357 59.8704L9.50702 60.2748C10.902 61.1654 12.5145 62.7597 13.945 64.3562C15.3839 65.9621 16.6726 67.609 17.4224 68.6392L17.4709 68.7059L17.4955 68.7846C17.866 69.9734 18.116 71.867 18.2843 74.1131C18.4537 76.3724 18.543 79.0306 18.5786 81.7732C18.6498 87.2589 18.5059 93.1038 18.3513 96.8125L18.333 97.2518L17.895 97.2898C14.5617 97.5795 9.8135 99.1732 7.84521 99.9415L7.14785 100.214ZM80.4112 98.7465C80.2311 90.1652 80.0495 81.9576 79.8133 75.2724C79.5939 69.0629 79.3282 64.201 78.9781 61.5686C77.8497 62.4243 76.5797 63.6956 75.3898 65.0236C74.0072 66.5666 72.7645 68.15 72.0255 69.16C71.7042 70.2375 71.4671 71.9976 71.3029 74.1879C71.1357 76.4186 71.0468 79.0543 71.0114 81.7862C70.9432 87.0405 71.0732 92.6305 71.2203 96.3378C74.2934 96.6883 78.2462 97.9516 80.4112 98.7465ZM17.3698 96.3378C17.5169 92.6305 17.6468 87.0405 17.5787 81.7862C17.5432 79.0543 17.4543 76.4186 17.2871 74.1879C17.123 71.9976 16.8858 70.2375 16.5645 69.16C15.8255 68.15 14.5828 66.5666 13.2002 65.0236C12.0103 63.6956 10.7404 62.4243 9.61193 61.5686C9.26187 64.201 8.99611 69.0629 8.77671 75.2724C8.5405 81.9576 8.35893 90.1652 8.1788 98.7465C10.3439 97.9516 14.2966 96.6883 17.3698 96.3378ZM79.5439 59.5341C78.3804 60.339 75.2681 62.9146 72.3357 66.6507L71.449 66.2609C71.8073 64.0815 72.5577 60.58 73.6011 57.1361C74.6385 53.712 75.9877 50.2679 77.5702 48.2622L78.1231 47.5615L78.4319 48.3989C78.5026 48.5906 78.5798 48.9225 78.665 49.3887C78.7524 49.8665 78.8534 50.5163 78.9655 51.3639C79.19 53.0594 79.4609 55.559 79.7577 59.0809L79.782 59.3694L79.5439 59.5341ZM78.7372 58.8809C78.4506 55.5185 78.1899 53.1244 77.9742 51.4951C77.8802 50.7848 77.795 50.222 77.7204 49.789C76.5199 51.6987 75.4409 54.5125 74.5581 57.4261C73.793 59.9516 73.1873 62.5101 72.7823 64.536C75.203 61.7314 77.5585 59.7401 78.7372 58.8809ZM17.141 66.2609L16.2543 66.6507C13.3219 62.9146 10.2097 60.339 9.04613 59.5341L8.80805 59.3694L8.83235 59.0809C9.12915 55.559 9.40007 53.0594 9.62451 51.3638C9.73669 50.5163 9.83767 49.8665 9.92501 49.3887C10.0102 48.9225 10.0875 48.5906 10.1582 48.3989L10.4669 47.5615L11.0198 48.2622C12.6024 50.2679 13.9515 53.712 14.9889 57.1361C16.0324 60.58 16.7827 64.0815 17.141 66.2609ZM15.8078 64.536C15.4027 62.5101 14.7971 59.9516 14.0319 57.4261C13.1492 54.5125 12.0701 51.6986 10.8696 49.789C10.795 50.222 10.7099 50.7847 10.6159 51.4951C10.4002 53.1244 10.1394 55.5185 9.85288 58.8809C11.0315 59.7401 13.387 61.7314 15.8078 64.536ZM68.6633 64.201L44.2487 61.9403L19.8341 64.201L19.7652 63.7321C18.9619 58.2674 17.1544 46.2847 16.3417 42.0028C15.9327 39.8479 15.6916 38.2791 15.5564 37.1909C15.4233 36.1192 15.3886 35.4813 15.408 35.2102L15.4196 35.0472L15.5253 34.9225C16.7159 33.518 19.5581 31.5121 24.2428 29.8575C28.9425 28.1976 35.5293 26.8789 44.2487 26.8789C52.9681 26.8789 59.5549 28.1976 64.2546 29.8575C68.9393 31.5121 71.7815 33.518 72.9721 34.9225L73.0778 35.0472L73.0894 35.2102C73.1088 35.4813 73.0741 36.1192 72.941 37.1909C72.8059 38.2791 72.5647 39.8479 72.1557 42.0029C71.3431 46.2847 69.5355 58.2674 68.7322 63.7321L68.6633 64.201ZM67.8119 63.1179C68.6446 57.4702 70.3785 46.004 71.1733 41.8164C71.5793 39.6769 71.8167 38.1298 71.9486 37.0677C72.0541 36.2184 72.0895 35.6989 72.0941 35.4379C70.9873 34.216 68.3557 32.3666 63.9216 30.8005C59.3407 29.1825 52.868 27.8789 44.2487 27.8789C35.6295 27.8789 29.1567 29.1825 24.5758 30.8005C20.1418 32.3665 17.5102 34.216 16.4033 35.4379C16.4079 35.6989 16.4433 36.2184 16.5488 37.0677C16.6807 38.1298 16.9181 39.6769 17.3242 41.8164C18.1189 46.004 19.8528 57.4702 20.6856 63.1179L44.2487 60.936L67.8119 63.1179Z" fill="#1B1817"/>
    <path d="M44.2487 131.221C50.8248 131.16 65.2737 130.092 70.4604 126.316C69.2564 117.925 67.1446 93.6267 68.3302 63.5656C65.922 62.3008 57.7343 59.771 44.2487 59.771C30.7631 59.771 22.5754 62.3007 20.1672 63.5656C21.3528 93.6266 19.241 117.925 18.037 126.316C23.2237 130.092 37.6726 131.16 44.2487 131.221Z" fill="#413835"/>
    <path fill-rule="evenodd" clip-rule="evenodd" d="M44.2439 131.721L44.2439 131.721C40.9378 131.69 35.6584 131.407 30.5491 130.656C27.9943 130.281 25.4726 129.788 23.257 129.147C21.0495 128.509 19.1087 127.715 17.7426 126.72L17.4992 126.543L17.5419 126.245C18.7414 117.886 20.852 93.6179 19.6675 63.5853L19.6551 63.2697L19.9346 63.1229C22.441 61.8065 30.7184 59.2709 44.2486 59.2709C57.7788 59.2709 66.0563 61.8065 68.5626 63.1229L68.8421 63.2698L68.8297 63.5853C67.6453 93.6179 69.7558 117.886 70.9553 126.245L70.998 126.543L70.7546 126.72C69.3885 127.715 67.4477 128.509 65.2402 129.147C63.0246 129.788 60.5029 130.281 57.9481 130.656C52.8389 131.407 47.5594 131.69 44.2533 131.721L44.2439 131.721ZM69.9223 126.082C68.7118 117.421 66.6726 93.4547 67.8179 63.8686C65.1819 62.6118 57.193 60.2709 44.2486 60.2709C31.3042 60.2709 23.3153 62.6118 20.6794 63.8686C21.8246 93.4547 19.7854 117.421 18.5749 126.082C19.7925 126.902 21.508 127.601 23.5347 128.187C25.6925 128.81 28.1666 129.296 30.6944 129.667C35.7479 130.409 40.9783 130.69 44.2486 130.721C47.5189 130.69 52.7493 130.409 57.8028 129.667C60.3306 129.296 62.8047 128.81 64.9625 128.187C66.9893 127.601 68.7047 126.902 69.9223 126.082Z" fill="#1B1817"/>
    <path d="M76.7585 212.76C71.72 217.054 65.2118 218.498 62.5875 218.683C62.8654 217.017 63.0506 216.554 67.7743 215.074C71.5532 213.889 75.3384 211.433 76.7585 210.353L76.7585 212.76Z" fill="#DFD4C5"/>
    <path d="M11.7386 212.76C16.7772 217.054 23.2853 218.498 25.9096 218.683C25.6317 217.017 25.4465 216.554 20.7228 215.074C16.9439 213.889 13.1588 211.433 11.7386 210.353L11.7386 212.76Z" fill="#DFD4C5"/>
    <path fill-rule="evenodd" clip-rule="evenodd" d="M61.99 219.227L62.0943 218.601C62.1627 218.191 62.234 217.791 62.3921 217.426C62.5589 217.041 62.8122 216.713 63.2117 216.411C63.9655 215.839 65.2825 215.331 67.6247 214.597C71.3281 213.436 75.061 211.016 76.4559 209.955L77.2585 209.345L77.2585 212.991L77.0829 213.14C71.9402 217.523 65.3192 218.992 62.6227 219.182L61.99 219.227ZM26.5071 219.227L25.8744 219.182C23.178 218.992 16.5569 217.523 11.4143 213.14L11.2386 212.991L11.2386 209.345L12.0412 209.955C13.4361 211.016 17.169 213.436 20.8724 214.597C23.2146 215.331 24.5317 215.839 25.2854 216.411C25.6849 216.713 25.9383 217.041 26.105 217.426C26.2631 217.791 26.3345 218.191 26.4028 218.601L26.5071 219.227ZM76.2585 212.527L76.2585 211.33C74.4657 212.568 71.201 214.523 67.9239 215.551C65.5424 216.297 64.405 216.761 63.8158 217.207C63.5438 217.414 63.4035 217.607 63.3098 217.823C63.2706 217.914 63.2382 218.011 63.2092 218.12C66.0457 217.773 71.7323 216.299 76.2585 212.527ZM25.2879 218.12C25.2589 218.011 25.2265 217.914 25.1874 217.823C25.0937 217.607 24.9534 217.414 24.6813 217.207C24.0921 216.761 22.9547 216.297 20.5733 215.551C17.2961 214.523 14.0315 212.568 12.2386 211.33L12.2386 212.527C16.7648 216.299 22.4514 217.773 25.2879 218.12Z" fill="#1B1817"/>
    <path d="M44.2485 222.015C49.3427 222.015 59.2717 221.293 60.0867 220.257C61.1056 218.961 61.8465 217.388 59.7162 217.85C57.586 218.313 48.8795 219.146 44.2485 219.146C39.6175 219.146 30.9112 218.313 28.7809 217.85C26.6506 217.388 27.3916 218.961 28.4104 220.257C29.2255 221.293 39.1544 222.015 44.2485 222.015Z" fill="#A79B98"/>
    <path fill-rule="evenodd" clip-rule="evenodd" d="M59.6978 219.942C59.9402 219.634 60.1595 219.317 60.3213 219.026C60.4903 218.722 60.5712 218.492 60.5846 218.348C60.5868 218.323 60.5867 218.306 60.586 218.294C60.5134 218.267 60.2978 218.236 59.8224 218.339C58.7215 218.578 55.9811 218.904 52.964 219.17C49.9375 219.436 46.586 219.646 44.2485 219.646C41.9111 219.646 38.5596 219.436 35.5331 219.17C32.5161 218.904 29.7757 218.578 28.6748 218.339C28.1994 218.236 27.9838 218.267 27.9112 218.294C27.9104 218.306 27.9103 218.323 27.9126 218.348C27.926 218.492 28.0069 218.722 28.1758 219.026C28.3377 219.317 28.557 219.634 28.7994 219.942C28.8004 219.943 28.8252 219.966 28.8988 220.004C28.9849 220.05 29.1082 220.101 29.2731 220.155C29.6025 220.264 30.0528 220.373 30.6058 220.477C31.7092 220.687 33.1687 220.872 34.7728 221.027C37.9794 221.336 41.7191 221.515 44.2485 221.515C46.778 221.515 50.5177 221.336 53.7244 221.027C55.3285 220.872 56.788 220.687 57.8913 220.477C58.4444 220.373 58.8946 220.264 59.224 220.155C59.389 220.101 59.5122 220.05 59.5984 220.004C59.6719 219.966 59.6967 219.943 59.6978 219.942ZM53.8202 222.022C50.5851 222.334 46.8133 222.515 44.2485 222.515C41.6839 222.515 37.912 222.334 34.6769 222.022C33.0602 221.867 31.5662 221.678 30.4194 221.46C29.8474 221.351 29.3485 221.233 28.959 221.104C28.7644 221.04 28.5859 220.969 28.4346 220.89C28.2913 220.815 28.1323 220.712 28.0174 220.566C27.752 220.228 27.4981 219.864 27.302 219.512C27.1121 219.171 26.9498 218.794 26.9169 218.44C26.8999 218.258 26.9146 218.053 27.005 217.857C27.0999 217.652 27.2604 217.496 27.4649 217.398C27.8377 217.219 28.3332 217.241 28.8871 217.362C29.9164 217.585 32.5944 217.907 35.6208 218.174C38.6378 218.439 41.955 218.646 44.2485 218.646C46.5421 218.646 49.8593 218.439 52.8763 218.174C55.9028 217.907 58.5808 217.585 59.6101 217.362C60.164 217.241 60.6594 217.219 61.0323 217.398C61.2368 217.496 61.3973 217.652 61.4921 217.857C61.5826 218.053 61.5972 218.258 61.5803 218.44C61.5474 218.794 61.3851 219.171 61.1952 219.512C60.999 219.864 60.7451 220.228 60.4798 220.566C60.3649 220.712 60.2059 220.815 60.0626 220.89C59.9113 220.969 59.7327 221.04 59.5382 221.105C59.1487 221.233 58.6498 221.351 58.0777 221.46C56.931 221.678 55.437 221.867 53.8202 222.022Z" fill="#1B1817"/>
    <path d="M76.7585 212.76C78.1787 211.619 81.4081 208.188 82.9641 203.597C82.5936 203.381 81.5007 203.579 80.0929 206.096C78.5657 208.827 77.8058 209.467 77.0867 210.072C76.9772 210.164 76.8687 210.256 76.7585 210.354L76.7585 212.76Z" fill="#BD3722"/>
    <path d="M11.7385 212.76C10.3184 211.619 7.08896 208.188 5.53293 203.597C5.90341 203.381 6.99634 203.579 8.40418 206.096C9.93139 208.827 10.6913 209.467 11.4103 210.072C11.5198 210.164 11.6284 210.256 11.7385 210.354L11.7385 212.76Z" fill="#BD3722"/>
    <path fill-rule="evenodd" clip-rule="evenodd" d="M12.2386 213.803L11.4254 213.15C9.94975 211.964 6.65294 208.459 5.05949 203.758L4.92838 203.371L5.28123 203.165C5.70641 202.918 6.2912 203.021 6.86085 203.408C7.4455 203.806 8.11703 204.558 8.84067 205.852C9.59613 207.203 10.1519 208.019 10.5978 208.565C11.0383 209.105 11.3791 209.392 11.7324 209.69L11.7345 209.692C11.8427 209.783 11.9555 209.878 12.0707 209.98L12.2386 210.129L12.2386 213.803ZM76.2586 213.803L76.2586 210.129L76.4265 209.98C76.5417 209.878 76.6545 209.783 76.7626 209.692L76.7648 209.69C77.1181 209.392 77.4589 209.105 77.8994 208.565C78.3453 208.019 78.9011 207.203 79.6566 205.852C80.3802 204.558 81.0517 203.806 81.6364 203.408C82.206 203.021 82.7908 202.918 83.216 203.165L83.5688 203.371L83.4377 203.758C81.8443 208.459 78.5475 211.964 77.0718 213.15L76.2586 213.803ZM82.1985 204.235C81.7922 204.512 81.2134 205.117 80.5293 206.34C79.7576 207.72 79.1698 208.59 78.6742 209.197C78.1739 209.811 77.7756 210.146 77.4103 210.454L77.4088 210.455C77.3576 210.498 77.3077 210.54 77.2586 210.582L77.2586 211.642C78.7027 210.237 80.8801 207.593 82.1985 204.235ZM11.2386 211.642L11.2386 210.582C11.1895 210.54 11.1396 210.498 11.0884 210.455L11.0869 210.454C10.7216 210.146 10.3233 209.811 9.823 209.197C9.32739 208.59 8.73962 207.72 7.96788 206.34C7.28382 205.117 6.70507 204.512 6.29868 204.235C7.61708 207.593 9.79452 210.237 11.2386 211.642Z" fill="#1B1817"/>
    <path d="M80.7413 154.082C80.8957 153.31 81.1859 151.212 81.1118 148.991C81.0198 146.235 81.2017 146.215 82.0198 146.124L82.0379 146.122C82.8715 146.029 83.8904 145.844 85.4649 144.271C85.6083 144.128 85.7456 143.992 85.8763 143.863C87.1813 142.573 87.8393 141.923 87.5026 140.661C87.1321 139.273 86.9469 138.996 86.3912 139.273C85.9466 139.495 83.1803 141.032 81.8528 141.772C81.544 141.957 81.0192 142.272 81.0192 142.79L77.407 141.68L80.7413 154.082Z" fill="#362F2D"/>
    <path d="M7.84859 154.082C7.69422 153.31 7.40401 151.212 7.47811 148.991C7.57005 146.235 7.38823 146.215 6.57013 146.124L6.55195 146.122C5.71836 146.029 4.69953 145.844 3.12497 144.271C2.98157 144.128 2.84432 143.992 2.71356 143.863C1.40856 142.573 0.750556 141.923 1.0873 140.661C1.45779 139.273 1.64296 138.995 2.19869 139.273C2.64327 139.495 5.40955 141.032 6.73712 141.772C7.04585 141.957 7.57071 142.272 7.57071 142.79L11.1829 141.68L7.84859 154.082Z" fill="#362F2D"/>
    <path fill-rule="evenodd" clip-rule="evenodd" d="M81.2316 154.18L80.2585 154.211L76.6893 140.936L80.6858 142.165C80.7672 142.02 80.8693 141.898 80.9701 141.799C81.1826 141.591 81.4336 141.44 81.5836 141.351L81.6024 141.339L81.6093 141.335C82.9281 140.6 85.7099 139.055 86.1678 138.826C86.3323 138.744 86.5495 138.659 86.7899 138.68C87.0641 138.703 87.2679 138.852 87.411 139.036C87.5415 139.203 87.6381 139.42 87.7212 139.65C87.8069 139.888 87.8923 140.183 87.9857 140.533C88.1881 141.291 88.0907 141.908 87.7352 142.507C87.4165 143.044 86.8864 143.568 86.2702 144.177C86.2561 144.191 86.242 144.205 86.2278 144.219C86.0969 144.348 85.9606 144.483 85.8184 144.625C85.0001 145.442 84.3041 145.921 83.6818 146.206C83.055 146.494 82.5306 146.57 82.0932 146.619L82.0749 146.621C81.8442 146.647 81.7669 146.66 81.7219 146.68C81.7201 146.681 81.7188 146.682 81.7178 146.682C81.7142 146.687 81.7046 146.702 81.6923 146.735C81.6536 146.837 81.6158 147.035 81.5994 147.415C81.5834 147.786 81.5886 148.288 81.6116 148.975C81.6871 151.24 81.3922 153.377 81.2316 154.18ZM80.5595 151.48C80.6131 150.725 80.6411 149.876 80.6121 149.008C80.589 148.317 80.5826 147.783 80.6003 147.372C80.6177 146.97 80.6593 146.64 80.7568 146.382C80.8665 146.091 81.0506 145.883 81.3179 145.765C81.5211 145.676 81.756 145.65 81.9316 145.631C81.9429 145.63 81.954 145.628 81.9647 145.627L81.9828 145.625C81.9828 145.625 81.9828 145.625 81.9828 145.625C82.3789 145.581 82.7808 145.519 83.2654 145.297C83.7546 145.073 84.3553 144.673 85.1116 143.917C85.2559 143.773 85.394 143.637 85.5244 143.508C86.1952 142.845 86.63 142.41 86.8751 141.997C87.0907 141.633 87.1539 141.294 87.0195 140.79C86.9277 140.446 86.8511 140.185 86.7804 139.989C86.7288 139.846 86.6868 139.756 86.6554 139.701C86.6436 139.706 86.6301 139.713 86.6147 139.721C86.1842 139.936 83.442 141.458 82.1032 142.205C81.945 142.3 81.79 142.396 81.6704 142.513C81.5533 142.628 81.5192 142.716 81.5192 142.79L81.5192 143.467L78.1247 142.423L80.5595 151.48ZM8.3315 154.211L7.35837 154.18C7.19775 153.377 6.90285 151.24 6.97843 148.975C7.00134 148.288 7.00662 147.786 6.99059 147.415C6.97415 147.035 6.93639 146.837 6.89764 146.735C6.88539 146.702 6.87582 146.687 6.87215 146.682C6.87122 146.682 6.8699 146.681 6.8681 146.68C6.82311 146.66 6.74579 146.647 6.51508 146.621L6.49689 146.619C6.05943 146.57 5.53496 146.494 4.90817 146.206C4.28586 145.921 3.58987 145.442 2.77159 144.625C2.62937 144.483 2.49312 144.348 2.36225 144.219L2.31973 144.177C1.70355 143.568 1.17345 143.044 0.854768 142.507C0.499269 141.908 0.401918 141.291 0.604257 140.533C0.697671 140.183 0.78312 139.888 0.868745 139.65C0.951875 139.42 1.04846 139.203 1.17899 139.036C1.32207 138.852 1.52592 138.703 1.80007 138.68C2.04049 138.659 2.25768 138.744 2.42221 138.826C2.88011 139.055 5.66186 140.6 6.98071 141.335L6.98756 141.339L7.00641 141.351C7.15635 141.44 7.40737 141.591 7.6199 141.799C7.72072 141.898 7.82275 142.02 7.90419 142.165L11.9007 140.936L8.3315 154.211ZM10.4652 142.423L7.07076 143.467L7.07076 142.79C7.07076 142.716 7.03669 142.628 6.91957 142.513C6.8 142.396 6.64491 142.3 6.4867 142.205C5.14787 141.458 2.40578 139.936 1.97527 139.72C1.95993 139.713 1.9464 139.706 1.93458 139.701C1.90322 139.756 1.86118 139.846 1.80956 139.989C1.7389 140.185 1.66228 140.446 1.57044 140.79C1.43604 141.294 1.49932 141.633 1.71488 141.997C1.95998 142.41 2.39428 142.845 3.06503 143.507C3.19553 143.636 3.33408 143.773 3.47844 143.917C4.23472 144.673 4.83542 145.073 5.32457 145.297C5.80923 145.519 6.21103 145.581 6.60717 145.625L6.62526 145.627C6.63604 145.628 6.64709 145.63 6.65838 145.631C6.83395 145.65 7.06888 145.676 7.27213 145.765C7.53942 145.883 7.72344 146.091 7.83321 146.382C7.9307 146.64 7.97228 146.97 7.98966 147.372C8.00742 147.783 8.00094 148.317 7.97788 149.008C7.94893 149.876 7.97692 150.725 8.03045 151.48L10.4652 142.423Z" fill="#1B1817"/>
    <path d="M36.376 123.262C36.376 122.444 37.039 121.781 37.8568 121.781L50.4555 121.781C51.2733 121.781 51.9363 122.444 51.9363 123.262V123.262C51.9363 124.08 51.2733 124.743 50.4555 124.743L37.8568 124.743C37.039 124.743 36.376 124.08 36.376 123.262V123.262Z" fill="#AEB452"/>
</svg>
