<svg width="120" height="120" viewBox="0 0 120 120" fill="none" xmlns="http://www.w3.org/2000/svg">
  <path fill="#BD3722" d="M0 0h120v120H0z"/>
  <path d="M52.4 66.973c0 1.092-.2 2.145-.6 3.157-.4 1.012-1 1.904-1.8 2.677-.8.772-1.8 1.398-3 1.877-1.2.453-2.6.68-4.2.68s-3-.227-4.2-.68c-1.2-.48-2.2-1.105-3-1.877a7.535 7.535 0 0 1-1.8-2.677 8.512 8.512 0 0 1-.6-3.157c0-.985.134-1.85.4-2.597.267-.772.6-1.438 1-1.997.4-.56.827-1.012 1.28-1.358.48-.347.92-.626 1.32-.84v-.399a9.058 9.058 0 0 1-1-.76 6.99 6.99 0 0 1-1.04-1.118c-.32-.453-.6-.985-.84-1.598-.213-.612-.32-1.318-.32-2.117 0-.986.174-1.931.52-2.837a6.904 6.904 0 0 1 1.64-2.437c.72-.72 1.627-1.279 2.72-1.678 1.12-.426 2.427-.64 3.92-.64 1.494 0 2.787.214 3.88.64 1.12.4 2.04.959 2.76 1.678a6.47 6.47 0 0 1 1.6 2.437c.374.906.56 1.851.56 2.837 0 .799-.12 1.505-.36 2.117a6.398 6.398 0 0 1-.8 1.598 6.99 6.99 0 0 1-1.04 1.119c-.373.32-.706.572-1 .759v.4c.4.213.827.492 1.28.838.48.347.92.8 1.32 1.359.4.56.734 1.225 1 1.997.267.746.4 1.612.4 2.597ZM47.6 54.19c0-.506-.08-1-.24-1.479a3.239 3.239 0 0 0-.8-1.278c-.373-.373-.866-.666-1.48-.88-.613-.239-1.373-.359-2.28-.359-.906 0-1.666.12-2.28.36-.613.213-1.106.506-1.48.879-.373.373-.64.799-.8 1.278-.16.48-.24.973-.24 1.479 0 1.198.4 2.237 1.2 3.116.8.852 2 1.278 3.6 1.278s2.8-.426 3.6-1.278c.8-.879 1.2-1.918 1.2-3.116Zm.8 12.784c0-.692-.106-1.345-.32-1.957a4.471 4.471 0 0 0-1-1.678c-.426-.48-1-.853-1.72-1.119-.72-.293-1.573-.44-2.56-.44-1.013 0-1.88.147-2.6.44-.693.266-1.266.64-1.72 1.119a4.758 4.758 0 0 0-.96 1.678 5.912 5.912 0 0 0-.32 1.957c0 .613.107 1.212.32 1.798.214.56.534 1.066.96 1.519.454.426 1.027.785 1.72 1.078.72.267 1.587.4 2.6.4.987 0 1.84-.133 2.56-.4.72-.293 1.294-.652 1.72-1.078a4.3 4.3 0 0 0 1-1.519c.214-.586.32-1.185.32-1.798ZM60.783 61.78c-1.2 0-2.226-.187-3.08-.56a5.706 5.706 0 0 1-2.12-1.558c-.56-.692-.973-1.505-1.24-2.437-.24-.932-.36-1.944-.36-3.036s.12-2.105.36-3.037c.267-.932.68-1.731 1.24-2.397a5.522 5.522 0 0 1 2.12-1.598c.854-.373 1.88-.56 3.08-.56 1.2 0 2.227.187 3.08.56.854.373 1.56.906 2.12 1.598.56.666.96 1.465 1.2 2.397.267.932.4 1.945.4 3.037 0 1.092-.133 2.104-.4 3.036-.24.932-.64 1.745-1.2 2.437a5.706 5.706 0 0 1-2.12 1.558c-.853.373-1.88.56-3.08.56Zm-3.2-7.591c0 1.411.227 2.503.68 3.276.48.745 1.32 1.118 2.52 1.118s2.027-.372 2.48-1.118c.48-.773.72-1.865.72-3.276 0-1.412-.24-2.49-.72-3.236-.453-.773-1.28-1.16-2.48-1.16s-2.04.387-2.52 1.16c-.453.745-.68 1.824-.68 3.236Zm6 20.375-.4.4h-1.6l-.4-.4v-2.796l16-24.371.4-.4h1.6l.4.4v2.796l-16 24.371Zm16.4.8c-1.2 0-2.226-.187-3.08-.56a5.706 5.706 0 0 1-2.12-1.558c-.56-.693-.973-1.505-1.24-2.437-.24-.932-.36-1.944-.36-3.037 0-1.092.12-2.104.36-3.036.267-.932.68-1.731 1.24-2.397a5.522 5.522 0 0 1 2.12-1.598c.854-.373 1.88-.56 3.08-.56 1.2 0 2.227.187 3.08.56.854.373 1.56.905 2.12 1.598.56.666.96 1.465 1.2 2.397.267.932.4 1.944.4 3.036 0 1.093-.133 2.105-.4 3.037-.24.932-.64 1.744-1.2 2.437a5.706 5.706 0 0 1-2.12 1.558c-.853.373-1.88.56-3.08.56Zm-3.2-7.592c0 1.412.227 2.504.68 3.277.48.745 1.32 1.118 2.52 1.118s2.027-.373 2.48-1.118c.48-.773.72-1.865.72-3.277 0-1.411-.24-2.49-.72-3.236-.453-.772-1.28-1.158-2.48-1.158s-2.04.386-2.52 1.158c-.453.746-.68 1.825-.68 3.236Z" fill="#DFD4C5"/>
</svg>
